<svg width="334" height="334" viewBox="0 0 334 334" fill="none" xmlns="http://www.w3.org/2000/svg">
<rect width="333.33" height="333.33" fill="#353539"/>
<rect width="333" height="327" fill="#2D2D30"/>
<path d="M130.652 131.649L114.26 151.893L166.168 216L218.077 151.893L201.685 131.649H130.652Z" fill="#2D2D30" stroke="#4B4B50"/>
<path d="M115.882 151.114H214.833" stroke="#4B4B50" stroke-linecap="square"/>
<path d="M132.104 133.271L139.598 151.114M201.856 133.271L194.718 149.492M139.598 151.114L166.169 214.378L194.718 149.492M139.598 151.114L166.169 133.271L194.718 149.492" stroke="#4B4B50" stroke-linecap="square"/>
<rect x="10" y="10" width="43" height="43" fill="#2D2D30"/>
<path d="M18 20V44.9306C18 45.7671 18.966 46.2339 19.6214 45.7141L30.8786 36.7859C31.2426 36.4973 31.7574 36.4973 32.1214 36.7859L43.3786 45.7141C44.034 46.2339 45 45.7671 45 44.9306V20" stroke="#4B4B50" stroke-linecap="round"/>
<path d="M22 20H41" stroke="#4B4B50" stroke-linecap="round"/>
</svg>
