<svg width="58" height="43" viewBox="0 0 58 43" fill="none" xmlns="http://www.w3.org/2000/svg">
<rect width="58" height="43" transform="matrix(-1 0 0 1 58 0)" fill="#2D2D30"/>
<path d="M16.4608 26.26C15.9581 26.26 15.4468 26.1907 14.9268 26.052C14.4068 25.9307 13.9475 25.7313 13.5488 25.454C13.3408 25.2633 13.2368 25.0553 13.2368 24.83C13.2368 24.6047 13.3235 24.4053 13.4968 24.232C13.6875 24.0587 13.8955 23.972 14.1208 23.972C14.2421 23.972 14.3635 24.0067 14.4848 24.076C14.7968 24.2667 15.1521 24.4227 15.5508 24.544C15.9668 24.648 16.3568 24.7 16.7208 24.7C17.0675 24.7 17.3621 24.6393 17.6048 24.518C17.8648 24.3967 17.9948 24.1973 17.9948 23.92C17.9948 23.6427 17.8735 23.4347 17.6308 23.296C17.3881 23.1573 16.9721 23.0533 16.3828 22.984C16.1401 22.9493 15.8455 22.906 15.4988 22.854C15.1695 22.802 14.8401 22.7067 14.5108 22.568C14.1815 22.4293 13.9041 22.2213 13.6788 21.944C13.4535 21.6667 13.3408 21.294 13.3408 20.826C13.3408 20.0633 13.6181 19.4567 14.1728 19.006C14.7448 18.5553 15.5075 18.33 16.4608 18.33C17.0155 18.33 17.5355 18.3993 18.0208 18.538C18.5235 18.6767 18.8961 18.85 19.1388 19.058C19.3295 19.214 19.4248 19.396 19.4248 19.604C19.4248 19.8293 19.3468 20.0287 19.1908 20.202C19.0348 20.3753 18.8441 20.462 18.6188 20.462C18.4975 20.462 18.3848 20.436 18.2808 20.384C18.0035 20.228 17.6915 20.1153 17.3448 20.046C17.0155 19.9593 16.6948 19.916 16.3828 19.916C16.0188 19.916 15.7068 19.9767 15.4468 20.098C15.2041 20.202 15.0828 20.3753 15.0828 20.618C15.0828 20.7913 15.1521 20.9473 15.2908 21.086C15.4468 21.2073 15.8368 21.3113 16.4608 21.398C16.7555 21.4327 17.0848 21.4847 17.4488 21.554C17.8301 21.6233 18.1941 21.736 18.5408 21.892C18.8875 22.0307 19.1735 22.256 19.3988 22.568C19.6241 22.88 19.7368 23.3047 19.7368 23.842C19.7368 24.3967 19.5808 24.856 19.2688 25.22C18.9568 25.5667 18.5495 25.8267 18.0468 26C17.5615 26.1733 17.0328 26.26 16.4608 26.26ZM24.6518 26.26C23.9065 26.26 23.2391 26.0867 22.6498 25.74C22.0605 25.3933 21.6011 24.9167 21.2718 24.31C20.9425 23.686 20.7778 22.9927 20.7778 22.23C20.7778 21.4847 20.9425 20.8173 21.2718 20.228C21.6011 19.6387 22.0605 19.1793 22.6498 18.85C23.2391 18.5033 23.9065 18.33 24.6518 18.33C25.1371 18.33 25.5705 18.4167 25.9518 18.59C26.3331 18.746 26.6625 18.954 26.9398 19.214C26.9745 18.9713 27.0785 18.7893 27.2518 18.668C27.4251 18.5293 27.6158 18.46 27.8238 18.46C28.0491 18.46 28.2485 18.538 28.4218 18.694C28.6125 18.8327 28.7078 19.0493 28.7078 19.344V25.454C28.7078 25.714 28.6125 25.9133 28.4218 26.052C28.2485 26.1907 28.0491 26.26 27.8238 26.26C27.5985 26.26 27.3905 26.1907 27.1998 26.052C27.0265 25.9133 26.9398 25.714 26.9398 25.454V25.35C26.6625 25.6273 26.3331 25.844 25.9518 26C25.5705 26.1733 25.1371 26.26 24.6518 26.26ZM24.8078 24.648C25.4665 24.648 25.9865 24.4313 26.3678 23.998C26.7491 23.5473 26.9398 22.958 26.9398 22.23C26.9398 21.5367 26.7491 20.982 26.3678 20.566C25.9865 20.15 25.4665 19.942 24.8078 19.942C24.1318 19.942 23.5858 20.15 23.1698 20.566C22.7538 20.982 22.5458 21.5367 22.5458 22.23C22.5458 22.958 22.7538 23.5473 23.1698 23.998C23.5858 24.4313 24.1318 24.648 24.8078 24.648ZM33.735 26.26C33.475 26.26 33.2323 26.1993 33.007 26.078C32.7816 25.974 32.617 25.8093 32.513 25.584L29.939 19.526C29.9043 19.3873 29.887 19.2833 29.887 19.214C29.887 18.9367 29.9823 18.72 30.173 18.564C30.3636 18.408 30.5716 18.33 30.797 18.33C30.953 18.33 31.1003 18.3733 31.239 18.46C31.395 18.5467 31.5076 18.6853 31.577 18.876L33.397 23.582C33.4836 23.7553 33.5963 23.842 33.735 23.842C33.9083 23.842 34.021 23.7553 34.073 23.582L35.867 18.876C35.9363 18.6853 36.0403 18.5467 36.179 18.46C36.335 18.3733 36.491 18.33 36.647 18.33C36.8896 18.33 37.0976 18.408 37.271 18.564C37.4616 18.72 37.557 18.928 37.557 19.188C37.557 19.2747 37.5396 19.3873 37.505 19.526L34.957 25.584C34.853 25.8093 34.6883 25.974 34.463 26.078C34.2376 26.1993 33.995 26.26 33.735 26.26ZM42.2282 26.26C40.9282 26.26 39.9142 25.8873 39.1862 25.142C38.4582 24.3967 38.0942 23.3913 38.0942 22.126C38.0942 21.0167 38.4582 20.1067 39.1862 19.396C39.9316 18.6853 40.8849 18.33 42.0462 18.33C43.1729 18.33 44.0742 18.6593 44.7502 19.318C45.4262 19.9593 45.7642 20.7567 45.7642 21.71C45.7642 22.0913 45.6602 22.3773 45.4522 22.568C45.2616 22.7587 45.0102 22.854 44.6982 22.854H40.1742C40.0009 22.854 39.9402 22.9493 39.9922 23.14C40.1309 23.6253 40.4082 24.0067 40.8242 24.284C41.2576 24.544 41.7429 24.674 42.2802 24.674C42.6789 24.674 43.0602 24.622 43.4242 24.518C43.8056 24.414 44.1349 24.258 44.4122 24.05C44.4989 23.9807 44.6116 23.946 44.7502 23.946C44.9409 23.946 45.1142 24.0327 45.2702 24.206C45.4262 24.362 45.5042 24.5527 45.5042 24.778C45.5042 24.882 45.4869 24.986 45.4522 25.09C45.4176 25.194 45.3396 25.298 45.2182 25.402C44.7676 25.7313 44.2822 25.9567 43.7622 26.078C43.2596 26.1993 42.7482 26.26 42.2282 26.26ZM43.7362 21.502C43.8402 21.502 43.8922 21.45 43.8922 21.346C43.8922 20.9473 43.7102 20.6007 43.3462 20.306C42.9996 20.0113 42.5662 19.864 42.0462 19.864C41.5956 19.864 41.1622 19.9853 40.7462 20.228C40.3476 20.4707 40.1049 20.7913 40.0182 21.19C40.0182 21.19 40.0182 21.1987 40.0182 21.216C40.0009 21.2853 39.9922 21.346 39.9922 21.398C40.0096 21.45 40.0876 21.476 40.2262 21.476L43.7362 21.502Z" fill="#6D6D71"/>
</svg>
