<svg width="175" height="30" viewBox="0 0 175 30" fill="none" xmlns="http://www.w3.org/2000/svg">
<rect width="175" height="30" fill="#26262A"/>
<path d="M36.4449 22.77C36.0983 22.77 35.7949 22.7267 35.5349 22.64C35.1536 22.5013 34.9629 22.2413 34.9629 21.86C34.9629 21.548 35.0756 21.3227 35.3009 21.184C35.5089 21.0453 35.7083 21.0107 35.8989 21.08C35.9856 21.0973 36.0636 21.106 36.1329 21.106C36.2023 21.1233 36.2716 21.132 36.3409 21.132C36.6356 21.132 36.8696 21.0367 37.0429 20.846C37.2163 20.6553 37.3029 20.3433 37.3029 19.91V12.136C37.3029 11.876 37.3983 11.6767 37.5889 11.538C37.7796 11.3993 37.9703 11.33 38.1609 11.33C38.3863 11.33 38.5856 11.408 38.7589 11.564C38.9496 11.7027 39.0449 11.8933 39.0449 12.136V19.962C39.0449 20.8633 38.7849 21.5567 38.2649 22.042C37.7623 22.5273 37.1556 22.77 36.4449 22.77ZM38.2389 9.9C37.9096 9.9 37.6236 9.796 37.3809 9.588C37.1556 9.36267 37.0429 9.094 37.0429 8.782C37.0429 8.48733 37.1556 8.236 37.3809 8.028C37.6236 7.80267 37.9096 7.69 38.2389 7.69C38.5509 7.69 38.8196 7.80267 39.0449 8.028C39.2703 8.236 39.3829 8.48733 39.3829 8.782C39.3829 9.094 39.2703 9.36267 39.0449 9.588C38.8196 9.796 38.5509 9.9 38.2389 9.9ZM44.821 19.26C43.521 19.26 42.507 18.8873 41.779 18.142C41.051 17.3967 40.687 16.3913 40.687 15.126C40.687 14.0167 41.051 13.1067 41.779 12.396C42.5243 11.6853 43.4777 11.33 44.639 11.33C45.7657 11.33 46.667 11.6593 47.343 12.318C48.019 12.9593 48.357 13.7567 48.357 14.71C48.357 15.0913 48.253 15.3773 48.045 15.568C47.8543 15.7587 47.603 15.854 47.291 15.854H42.767C42.5937 15.854 42.533 15.9493 42.585 16.14C42.7237 16.6253 43.001 17.0067 43.417 17.284C43.8503 17.544 44.3357 17.674 44.873 17.674C45.2717 17.674 45.653 17.622 46.017 17.518C46.3983 17.414 46.7277 17.258 47.005 17.05C47.0917 16.9807 47.2043 16.946 47.343 16.946C47.5337 16.946 47.707 17.0327 47.863 17.206C48.019 17.362 48.097 17.5527 48.097 17.778C48.097 17.882 48.0797 17.986 48.045 18.09C48.0103 18.194 47.9323 18.298 47.811 18.402C47.3603 18.7313 46.875 18.9567 46.355 19.078C45.8523 19.1993 45.341 19.26 44.821 19.26ZM46.329 14.502C46.433 14.502 46.485 14.45 46.485 14.346C46.485 13.9473 46.303 13.6007 45.939 13.306C45.5923 13.0113 45.159 12.864 44.639 12.864C44.1883 12.864 43.755 12.9853 43.339 13.228C42.9403 13.4707 42.6977 13.7913 42.611 14.19C42.611 14.19 42.611 14.1987 42.611 14.216C42.5937 14.2853 42.585 14.346 42.585 14.398C42.6023 14.45 42.6803 14.476 42.819 14.476L46.329 14.502ZM52.022 19.26C51.346 19.26 50.9213 18.9393 50.748 18.298L49.162 12.474C49.1446 12.422 49.136 12.37 49.136 12.318C49.136 12.266 49.136 12.2227 49.136 12.188C49.136 11.9453 49.214 11.746 49.37 11.59C49.5433 11.4167 49.76 11.33 50.02 11.33C50.2106 11.33 50.384 11.382 50.54 11.486C50.7133 11.5727 50.8173 11.7113 50.852 11.902L51.814 16.426C51.8486 16.6167 51.9266 16.712 52.048 16.712C52.1693 16.712 52.256 16.6167 52.308 16.426L53.66 12.422C53.7466 12.1793 53.894 12.006 54.102 11.902C54.31 11.7807 54.5266 11.72 54.752 11.72C54.9773 11.72 55.1853 11.7807 55.376 11.902C55.584 12.006 55.7226 12.1793 55.792 12.422L57.144 16.426C57.196 16.6167 57.2826 16.712 57.404 16.712C57.5253 16.712 57.6033 16.6167 57.638 16.426L58.6 11.902C58.6346 11.7113 58.73 11.5727 58.886 11.486C59.0593 11.382 59.2413 11.33 59.432 11.33C59.692 11.33 59.9 11.4167 60.056 11.59C60.2293 11.746 60.316 11.9453 60.316 12.188C60.316 12.2227 60.316 12.266 60.316 12.318C60.316 12.37 60.3073 12.422 60.29 12.474L58.704 18.298C58.5306 18.9393 58.106 19.26 57.43 19.26C57.1353 19.26 56.8666 19.1733 56.624 19C56.3986 18.8093 56.2426 18.5753 56.156 18.298L54.96 14.502C54.8906 14.2767 54.8126 14.164 54.726 14.164C54.622 14.164 54.5353 14.2767 54.466 14.502L53.296 18.298C53.2093 18.5753 53.0446 18.8093 52.802 19C52.5766 19.1733 52.3166 19.26 52.022 19.26ZM65.2351 19.26C63.9351 19.26 62.9211 18.8873 62.1931 18.142C61.4651 17.3967 61.1011 16.3913 61.1011 15.126C61.1011 14.0167 61.4651 13.1067 62.1931 12.396C62.9384 11.6853 63.8917 11.33 65.0531 11.33C66.1797 11.33 67.0811 11.6593 67.7571 12.318C68.4331 12.9593 68.7711 13.7567 68.7711 14.71C68.7711 15.0913 68.6671 15.3773 68.4591 15.568C68.2684 15.7587 68.0171 15.854 67.7051 15.854H63.1811C63.0077 15.854 62.9471 15.9493 62.9991 16.14C63.1377 16.6253 63.4151 17.0067 63.8311 17.284C64.2644 17.544 64.7497 17.674 65.2871 17.674C65.6857 17.674 66.0671 17.622 66.4311 17.518C66.8124 17.414 67.1417 17.258 67.4191 17.05C67.5057 16.9807 67.6184 16.946 67.7571 16.946C67.9477 16.946 68.1211 17.0327 68.2771 17.206C68.4331 17.362 68.5111 17.5527 68.5111 17.778C68.5111 17.882 68.4937 17.986 68.4591 18.09C68.4244 18.194 68.3464 18.298 68.2251 18.402C67.7744 18.7313 67.2891 18.9567 66.7691 19.078C66.2664 19.1993 65.7551 19.26 65.2351 19.26ZM66.7431 14.502C66.8471 14.502 66.8991 14.45 66.8991 14.346C66.8991 13.9473 66.7171 13.6007 66.3531 13.306C66.0064 13.0113 65.5731 12.864 65.0531 12.864C64.6024 12.864 64.1691 12.9853 63.7531 13.228C63.3544 13.4707 63.1117 13.7913 63.0251 14.19C63.0251 14.19 63.0251 14.1987 63.0251 14.216C63.0077 14.2853 62.9991 14.346 62.9991 14.398C63.0164 14.45 63.0944 14.476 63.2331 14.476L66.7431 14.502ZM71.214 19.26C70.9887 19.26 70.7807 19.1907 70.59 19.052C70.4167 18.9133 70.33 18.714 70.33 18.454V8.574C70.33 8.27933 70.4167 8.06267 70.59 7.924C70.7807 7.768 70.9887 7.69 71.214 7.69C71.4394 7.69 71.6387 7.768 71.812 7.924C72.0027 8.06267 72.098 8.27933 72.098 8.574V18.454C72.098 18.714 72.0027 18.9133 71.812 19.052C71.6387 19.1907 71.4394 19.26 71.214 19.26ZM76.0082 15.152V18.454C76.0082 18.714 75.9129 18.9133 75.7222 19.052C75.5489 19.1907 75.3495 19.26 75.1242 19.26C74.8989 19.26 74.6909 19.1907 74.5002 19.052C74.3269 18.9133 74.2402 18.714 74.2402 18.454V12.344C74.2402 12.0493 74.3269 11.8327 74.5002 11.694C74.6909 11.538 74.8989 11.46 75.1242 11.46C75.3495 11.46 75.5489 11.538 75.7222 11.694C75.9129 11.8327 76.0082 12.0493 76.0082 12.344V12.448C76.2509 12.1187 76.5629 11.85 76.9442 11.642C77.3429 11.434 77.7589 11.33 78.1922 11.33C78.4002 11.33 78.6082 11.356 78.8162 11.408C79.0242 11.46 79.1802 11.564 79.2842 11.72C79.3882 11.876 79.4402 12.0493 79.4402 12.24C79.4402 12.4653 79.3622 12.6733 79.2062 12.864C79.0675 13.0373 78.8595 13.124 78.5822 13.124C78.4609 13.124 78.3309 13.1067 78.1922 13.072C78.0709 13.0373 77.9149 13.02 77.7242 13.02C77.2215 13.02 76.8055 13.2107 76.4762 13.592C76.1642 13.9733 76.0082 14.4933 76.0082 15.152ZM79.8332 12.214C79.8332 11.9367 79.9286 11.72 80.1192 11.564C80.3099 11.408 80.5179 11.33 80.7432 11.33C81.1072 11.33 81.3672 11.512 81.5232 11.876L83.5512 16.842C83.6032 16.9807 83.6986 17.05 83.8372 17.05C83.9759 17.05 84.0712 16.9893 84.1232 16.868L85.8652 11.902C86.0039 11.5207 86.2726 11.33 86.6712 11.33C86.9139 11.33 87.1306 11.408 87.3212 11.564C87.5292 11.72 87.6332 11.9107 87.6332 12.136C87.6332 12.2227 87.6072 12.344 87.5552 12.5L83.5772 22.198C83.4386 22.5793 83.1699 22.77 82.7712 22.77C82.5459 22.77 82.3292 22.692 82.1212 22.536C81.9306 22.38 81.8352 22.1893 81.8352 21.964C81.8352 21.7907 81.8612 21.6693 81.9132 21.6L83.1872 19C82.8232 18.9653 82.5719 18.792 82.4332 18.48L79.8852 12.526C79.8506 12.3873 79.8332 12.2833 79.8332 12.214ZM97.3444 22.64C96.9804 22.64 96.5731 22.6053 96.1224 22.536C95.6718 22.4667 95.2298 22.3193 94.7964 22.094C94.4671 21.9207 94.3024 21.652 94.3024 21.288C94.3024 21.08 94.3718 20.8893 94.5104 20.716C94.6664 20.5427 94.8571 20.456 95.0824 20.456C95.2384 20.456 95.3944 20.4993 95.5504 20.586C95.8798 20.7593 96.2091 20.8807 96.5384 20.95C96.8678 21.0193 97.1884 21.054 97.5004 21.054C98.1244 21.054 98.6618 20.8893 99.1124 20.56C99.5631 20.248 99.7884 19.7453 99.7884 19.052V18.324C99.4938 18.6187 99.1471 18.844 98.7484 19C98.3671 19.1733 97.9338 19.26 97.4484 19.26C96.7378 19.26 96.0878 19.0867 95.4984 18.74C94.9264 18.3933 94.4671 17.9167 94.1204 17.31C93.7911 16.7033 93.6264 16.0187 93.6264 15.256C93.6264 14.4933 93.7911 13.8087 94.1204 13.202C94.4498 12.5953 94.9004 12.1187 95.4724 11.772C96.0444 11.4253 96.6944 11.278 97.4224 11.33C97.9251 11.3647 98.3671 11.4687 98.7484 11.642C99.1471 11.798 99.4938 12.0147 99.7884 12.292C99.7884 12.0493 99.8664 11.85 100.022 11.694C100.196 11.538 100.412 11.46 100.672 11.46C100.932 11.46 101.14 11.538 101.296 11.694C101.47 11.85 101.556 12.0493 101.556 12.292V19.104C101.556 19.9013 101.366 20.56 100.984 21.08C100.62 21.6173 100.118 22.0073 99.4764 22.25C98.8351 22.51 98.1244 22.64 97.3444 22.64ZM97.6564 17.648C98.3151 17.648 98.8351 17.4313 99.2164 16.998C99.5978 16.5473 99.7884 15.958 99.7884 15.23C99.7884 14.5367 99.5978 13.982 99.2164 13.566C98.8351 13.15 98.3151 12.942 97.6564 12.942C96.9804 12.942 96.4344 13.15 96.0184 13.566C95.6024 13.982 95.3944 14.5453 95.3944 15.256C95.3944 15.9493 95.5938 16.5213 95.9924 16.972C96.4084 17.4227 96.9631 17.648 97.6564 17.648ZM106.997 19.26C106.251 19.26 105.584 19.0867 104.995 18.74C104.405 18.3933 103.946 17.9167 103.617 17.31C103.287 16.686 103.123 15.9927 103.123 15.23C103.123 14.4847 103.287 13.8173 103.617 13.228C103.946 12.6387 104.405 12.1793 104.995 11.85C105.584 11.5033 106.251 11.33 106.997 11.33C107.482 11.33 107.915 11.4167 108.297 11.59C108.678 11.746 109.007 11.954 109.285 12.214C109.319 11.9713 109.423 11.7893 109.597 11.668C109.77 11.5293 109.961 11.46 110.169 11.46C110.394 11.46 110.593 11.538 110.767 11.694C110.957 11.8327 111.053 12.0493 111.053 12.344V18.454C111.053 18.714 110.957 18.9133 110.767 19.052C110.593 19.1907 110.394 19.26 110.169 19.26C109.943 19.26 109.735 19.1907 109.545 19.052C109.371 18.9133 109.285 18.714 109.285 18.454V18.35C109.007 18.6273 108.678 18.844 108.297 19C107.915 19.1733 107.482 19.26 106.997 19.26ZM107.153 17.648C107.811 17.648 108.331 17.4313 108.713 16.998C109.094 16.5473 109.285 15.958 109.285 15.23C109.285 14.5367 109.094 13.982 108.713 13.566C108.331 13.15 107.811 12.942 107.153 12.942C106.477 12.942 105.931 13.15 105.515 13.566C105.099 13.982 104.891 14.5367 104.891 15.23C104.891 15.958 105.099 16.5473 105.515 16.998C105.931 17.4313 106.477 17.648 107.153 17.648ZM113.896 19.26C113.67 19.26 113.462 19.1907 113.272 19.052C113.098 18.9133 113.012 18.714 113.012 18.454V8.574C113.012 8.27933 113.098 8.06267 113.272 7.924C113.462 7.768 113.67 7.69 113.896 7.69C114.121 7.69 114.32 7.768 114.494 7.924C114.684 8.06267 114.78 8.27933 114.78 8.574V18.454C114.78 18.714 114.684 18.9133 114.494 19.052C114.32 19.1907 114.121 19.26 113.896 19.26ZM117.806 19.26C117.581 19.26 117.373 19.1907 117.182 19.052C117.009 18.9133 116.922 18.714 116.922 18.454V8.574C116.922 8.27933 117.009 8.06267 117.182 7.924C117.373 7.768 117.581 7.69 117.806 7.69C118.031 7.69 118.231 7.768 118.404 7.924C118.595 8.06267 118.69 8.27933 118.69 8.574V18.454C118.69 18.714 118.595 18.9133 118.404 19.052C118.231 19.1907 118.031 19.26 117.806 19.26ZM124.446 19.26C123.146 19.26 122.132 18.8873 121.404 18.142C120.676 17.3967 120.312 16.3913 120.312 15.126C120.312 14.0167 120.676 13.1067 121.404 12.396C122.149 11.6853 123.103 11.33 124.264 11.33C125.391 11.33 126.292 11.6593 126.968 12.318C127.644 12.9593 127.982 13.7567 127.982 14.71C127.982 15.0913 127.878 15.3773 127.67 15.568C127.479 15.7587 127.228 15.854 126.916 15.854H122.392C122.219 15.854 122.158 15.9493 122.21 16.14C122.349 16.6253 122.626 17.0067 123.042 17.284C123.475 17.544 123.961 17.674 124.498 17.674C124.897 17.674 125.278 17.622 125.642 17.518C126.023 17.414 126.353 17.258 126.63 17.05C126.717 16.9807 126.829 16.946 126.968 16.946C127.159 16.946 127.332 17.0327 127.488 17.206C127.644 17.362 127.722 17.5527 127.722 17.778C127.722 17.882 127.705 17.986 127.67 18.09C127.635 18.194 127.557 18.298 127.436 18.402C126.985 18.7313 126.5 18.9567 125.98 19.078C125.477 19.1993 124.966 19.26 124.446 19.26ZM125.954 14.502C126.058 14.502 126.11 14.45 126.11 14.346C126.11 13.9473 125.928 13.6007 125.564 13.306C125.217 13.0113 124.784 12.864 124.264 12.864C123.813 12.864 123.38 12.9853 122.964 13.228C122.565 13.4707 122.323 13.7913 122.236 14.19C122.236 14.19 122.236 14.1987 122.236 14.216C122.219 14.2853 122.21 14.346 122.21 14.398C122.227 14.45 122.305 14.476 122.444 14.476L125.954 14.502ZM131.309 15.152V18.454C131.309 18.714 131.214 18.9133 131.023 19.052C130.85 19.1907 130.65 19.26 130.425 19.26C130.2 19.26 129.992 19.1907 129.801 19.052C129.628 18.9133 129.541 18.714 129.541 18.454V12.344C129.541 12.0493 129.628 11.8327 129.801 11.694C129.992 11.538 130.2 11.46 130.425 11.46C130.65 11.46 130.85 11.538 131.023 11.694C131.214 11.8327 131.309 12.0493 131.309 12.344V12.448C131.552 12.1187 131.864 11.85 132.245 11.642C132.644 11.434 133.06 11.33 133.493 11.33C133.701 11.33 133.909 11.356 134.117 11.408C134.325 11.46 134.481 11.564 134.585 11.72C134.689 11.876 134.741 12.0493 134.741 12.24C134.741 12.4653 134.663 12.6733 134.507 12.864C134.368 13.0373 134.16 13.124 133.883 13.124C133.762 13.124 133.632 13.1067 133.493 13.072C133.372 13.0373 133.216 13.02 133.025 13.02C132.522 13.02 132.106 13.2107 131.777 13.592C131.465 13.9733 131.309 14.4933 131.309 15.152ZM135.134 12.214C135.134 11.9367 135.229 11.72 135.42 11.564C135.611 11.408 135.819 11.33 136.044 11.33C136.408 11.33 136.668 11.512 136.824 11.876L138.852 16.842C138.904 16.9807 138.999 17.05 139.138 17.05C139.277 17.05 139.372 16.9893 139.424 16.868L141.166 11.902C141.305 11.5207 141.573 11.33 141.972 11.33C142.215 11.33 142.431 11.408 142.622 11.564C142.83 11.72 142.934 11.9107 142.934 12.136C142.934 12.2227 142.908 12.344 142.856 12.5L138.878 22.198C138.739 22.5793 138.471 22.77 138.072 22.77C137.847 22.77 137.63 22.692 137.422 22.536C137.231 22.38 137.136 22.1893 137.136 21.964C137.136 21.7907 137.162 21.6693 137.214 21.6L138.488 19C138.124 18.9653 137.873 18.792 137.734 18.48L135.186 12.526C135.151 12.3873 135.134 12.2833 135.134 12.214Z" fill="#6D6D71"/>
<path d="M161.678 19.986C161.47 19.986 161.297 19.908 161.158 19.752C161.037 19.596 160.976 19.4313 160.976 19.258C160.976 19.0153 161.08 18.8247 161.288 18.686L165.552 15.878C165.656 15.7913 165.708 15.722 165.708 15.67C165.708 15.6007 165.656 15.5313 165.552 15.462L161.288 12.654C161.063 12.498 160.95 12.2987 160.95 12.056C160.95 11.8653 161.011 11.692 161.132 11.536C161.271 11.38 161.444 11.302 161.652 11.302C161.808 11.302 161.973 11.3627 162.146 11.484L167.138 14.864C167.433 15.072 167.58 15.332 167.58 15.644C167.58 15.9907 167.433 16.2593 167.138 16.45L162.172 19.83C162.085 19.8993 161.999 19.9427 161.912 19.96C161.843 19.9773 161.765 19.986 161.678 19.986Z" fill="#6D6D71"/>
<path d="M12.322 19.986C12.53 19.986 12.7033 19.908 12.842 19.752C12.9633 19.596 13.024 19.4313 13.024 19.258C13.024 19.0153 12.92 18.8247 12.712 18.686L8.448 15.878C8.344 15.7913 8.292 15.722 8.292 15.67C8.292 15.6007 8.344 15.5313 8.448 15.462L12.712 12.654C12.9373 12.498 13.05 12.2987 13.05 12.056C13.05 11.8653 12.9893 11.692 12.868 11.536C12.7293 11.38 12.556 11.302 12.348 11.302C12.192 11.302 12.0273 11.3627 11.854 11.484L6.862 14.864C6.56733 15.072 6.42 15.332 6.42 15.644C6.42 15.9907 6.56733 16.2593 6.862 16.45L11.828 19.83C11.9147 19.8993 12.0013 19.9427 12.088 19.96C12.1573 19.9773 12.2353 19.986 12.322 19.986Z" fill="#6D6D71"/>
</svg>
