<svg width="175" height="30" viewBox="0 0 175 30" fill="none" xmlns="http://www.w3.org/2000/svg">
<rect width="175" height="30" fill="#26262A"/>
<path d="M161.678 19.986C161.47 19.986 161.297 19.908 161.158 19.752C161.037 19.596 160.976 19.4313 160.976 19.258C160.976 19.0153 161.08 18.8247 161.288 18.686L165.552 15.878C165.656 15.7913 165.708 15.722 165.708 15.67C165.708 15.6007 165.656 15.5313 165.552 15.462L161.288 12.654C161.063 12.498 160.95 12.2987 160.95 12.056C160.95 11.8653 161.011 11.692 161.132 11.536C161.271 11.38 161.444 11.302 161.652 11.302C161.808 11.302 161.973 11.3627 162.146 11.484L167.138 14.864C167.433 15.072 167.58 15.332 167.58 15.644C167.58 15.9907 167.433 16.2593 167.138 16.45L162.172 19.83C162.085 19.8993 161.999 19.9427 161.912 19.96C161.843 19.9773 161.765 19.986 161.678 19.986Z" fill="#6D6D71"/>
<path d="M12.322 19.986C12.53 19.986 12.7033 19.908 12.842 19.752C12.9633 19.596 13.024 19.4313 13.024 19.258C13.024 19.0153 12.92 18.8247 12.712 18.686L8.448 15.878C8.344 15.7913 8.292 15.722 8.292 15.67C8.292 15.6007 8.344 15.5313 8.448 15.462L12.712 12.654C12.9373 12.498 13.05 12.2987 13.05 12.056C13.05 11.8653 12.9893 11.692 12.868 11.536C12.7293 11.38 12.556 11.302 12.348 11.302C12.192 11.302 12.0273 11.3627 11.854 11.484L6.862 14.864C6.56733 15.072 6.42 15.332 6.42 15.644C6.42 15.9907 6.56733 16.2593 6.862 16.45L11.828 19.83C11.9147 19.8993 12.0013 19.9427 12.088 19.96C12.1573 19.9773 12.2353 19.986 12.322 19.986Z" fill="#6D6D71"/>
<path d="M79.496 20.26C78.9933 20.26 78.482 20.1907 77.962 20.052C77.442 19.9307 76.9826 19.7313 76.584 19.454C76.376 19.2633 76.272 19.0553 76.272 18.83C76.272 18.6047 76.3586 18.4053 76.532 18.232C76.7226 18.0587 76.9306 17.972 77.156 17.972C77.2773 17.972 77.3986 18.0067 77.52 18.076C77.832 18.2667 78.1873 18.4227 78.586 18.544C79.002 18.648 79.392 18.7 79.756 18.7C80.1026 18.7 80.3973 18.6393 80.64 18.518C80.9 18.3967 81.03 18.1973 81.03 17.92C81.03 17.6427 80.9086 17.4347 80.666 17.296C80.4233 17.1573 80.0073 17.0533 79.418 16.984C79.1753 16.9493 78.8806 16.906 78.534 16.854C78.2046 16.802 77.8753 16.7067 77.546 16.568C77.2166 16.4293 76.9393 16.2213 76.714 15.944C76.4886 15.6667 76.376 15.294 76.376 14.826C76.376 14.0633 76.6533 13.4567 77.208 13.006C77.78 12.5553 78.5426 12.33 79.496 12.33C80.0506 12.33 80.5706 12.3993 81.056 12.538C81.5586 12.6767 81.9313 12.85 82.174 13.058C82.3646 13.214 82.46 13.396 82.46 13.604C82.46 13.8293 82.382 14.0287 82.226 14.202C82.07 14.3753 81.8793 14.462 81.654 14.462C81.5326 14.462 81.42 14.436 81.316 14.384C81.0386 14.228 80.7266 14.1153 80.38 14.046C80.0506 13.9593 79.73 13.916 79.418 13.916C79.054 13.916 78.742 13.9767 78.482 14.098C78.2393 14.202 78.118 14.3753 78.118 14.618C78.118 14.7913 78.1873 14.9473 78.326 15.086C78.482 15.2073 78.872 15.3113 79.496 15.398C79.7906 15.4327 80.12 15.4847 80.484 15.554C80.8653 15.6233 81.2293 15.736 81.576 15.892C81.9226 16.0307 82.2086 16.256 82.434 16.568C82.6593 16.88 82.772 17.3047 82.772 17.842C82.772 18.3967 82.616 18.856 82.304 19.22C81.992 19.5667 81.5846 19.8267 81.082 20C80.5966 20.1733 80.068 20.26 79.496 20.26ZM87.947 20.26C86.647 20.26 85.633 19.8873 84.905 19.142C84.177 18.3967 83.813 17.3913 83.813 16.126C83.813 15.0167 84.177 14.1067 84.905 13.396C85.6503 12.6853 86.6036 12.33 87.765 12.33C88.8916 12.33 89.793 12.6593 90.469 13.318C91.145 13.9593 91.483 14.7567 91.483 15.71C91.483 16.0913 91.379 16.3773 91.171 16.568C90.9803 16.7587 90.729 16.854 90.417 16.854H85.893C85.7196 16.854 85.659 16.9493 85.711 17.14C85.8496 17.6253 86.127 18.0067 86.543 18.284C86.9763 18.544 87.4616 18.674 87.999 18.674C88.3976 18.674 88.779 18.622 89.143 18.518C89.5243 18.414 89.8536 18.258 90.131 18.05C90.2176 17.9807 90.3303 17.946 90.469 17.946C90.6596 17.946 90.833 18.0327 90.989 18.206C91.145 18.362 91.223 18.5527 91.223 18.778C91.223 18.882 91.2056 18.986 91.171 19.09C91.1363 19.194 91.0583 19.298 90.937 19.402C90.4863 19.7313 90.001 19.9567 89.481 20.078C88.9783 20.1993 88.467 20.26 87.947 20.26ZM89.455 15.502C89.559 15.502 89.611 15.45 89.611 15.346C89.611 14.9473 89.429 14.6007 89.065 14.306C88.7183 14.0113 88.285 13.864 87.765 13.864C87.3143 13.864 86.881 13.9853 86.465 14.228C86.0663 14.4707 85.8236 14.7913 85.737 15.19C85.737 15.19 85.737 15.1987 85.737 15.216C85.7196 15.2853 85.711 15.346 85.711 15.398C85.7283 15.45 85.8063 15.476 85.945 15.476L89.455 15.502ZM95.98 20.26C95.304 20.26 94.7493 20.052 94.316 19.636C93.8826 19.22 93.666 18.596 93.666 17.764V14.462C93.666 14.2887 93.5793 14.202 93.406 14.202H92.938C92.7126 14.202 92.522 14.1327 92.366 13.994C92.21 13.838 92.132 13.6473 92.132 13.422C92.132 13.1793 92.21 12.98 92.366 12.824C92.522 12.668 92.7126 12.59 92.938 12.59H93.406C93.5793 12.59 93.666 12.5033 93.666 12.33V10.146C93.666 9.90333 93.744 9.71267 93.9 9.574C94.0733 9.418 94.2813 9.34 94.524 9.34C94.784 9.34 94.992 9.418 95.148 9.574C95.3213 9.71267 95.408 9.90333 95.408 10.146V12.33C95.408 12.5033 95.4946 12.59 95.668 12.59H97.072C97.28 12.59 97.462 12.668 97.618 12.824C97.774 12.98 97.852 13.1793 97.852 13.422C97.852 13.6473 97.774 13.838 97.618 13.994C97.4793 14.1327 97.2886 14.202 97.046 14.202H95.668C95.4946 14.202 95.408 14.2887 95.408 14.462V17.53C95.408 18.258 95.7026 18.622 96.292 18.622C96.4653 18.622 96.6473 18.596 96.838 18.544C97.0286 18.492 97.1586 18.466 97.228 18.466C97.4706 18.466 97.6526 18.544 97.774 18.7C97.9126 18.856 97.982 19.038 97.982 19.246C97.982 19.402 97.9386 19.558 97.852 19.714C97.7653 19.8527 97.6266 19.9567 97.436 20.026C97.2453 20.0953 97.0026 20.1473 96.708 20.182C96.4306 20.234 96.188 20.26 95.98 20.26Z" fill="#6D6D71"/>
</svg>
