<svg width="175" height="30" viewBox="0 0 175 30" fill="none" xmlns="http://www.w3.org/2000/svg">
<rect width="175" height="30" fill="#26262A"/>
<path d="M161.678 19.986C161.47 19.986 161.297 19.908 161.158 19.752C161.037 19.596 160.976 19.4313 160.976 19.258C160.976 19.0153 161.08 18.8247 161.288 18.686L165.552 15.878C165.656 15.7913 165.708 15.722 165.708 15.67C165.708 15.6007 165.656 15.5313 165.552 15.462L161.288 12.654C161.063 12.498 160.95 12.2987 160.95 12.056C160.95 11.8653 161.011 11.692 161.132 11.536C161.271 11.38 161.444 11.302 161.652 11.302C161.808 11.302 161.973 11.3627 162.146 11.484L167.138 14.864C167.433 15.072 167.58 15.332 167.58 15.644C167.58 15.9907 167.433 16.2593 167.138 16.45L162.172 19.83C162.085 19.8993 161.999 19.9427 161.912 19.96C161.843 19.9773 161.765 19.986 161.678 19.986Z" fill="#6D6D71"/>
<path d="M12.322 19.986C12.53 19.986 12.7033 19.908 12.842 19.752C12.9633 19.596 13.024 19.4313 13.024 19.258C13.024 19.0153 12.92 18.8247 12.712 18.686L8.448 15.878C8.344 15.7913 8.292 15.722 8.292 15.67C8.292 15.6007 8.344 15.5313 8.448 15.462L12.712 12.654C12.9373 12.498 13.05 12.2987 13.05 12.056C13.05 11.8653 12.9893 11.692 12.868 11.536C12.7293 11.38 12.556 11.302 12.348 11.302C12.192 11.302 12.0273 11.3627 11.854 11.484L6.862 14.864C6.56733 15.072 6.42 15.332 6.42 15.644C6.42 15.9907 6.56733 16.2593 6.862 16.45L11.828 19.83C11.9147 19.8993 12.0013 19.9427 12.088 19.96C12.1573 19.9773 12.2353 19.986 12.322 19.986Z" fill="#6D6D71"/>
<path d="M73.6949 20.26C73.4696 20.26 73.2616 20.1907 73.0709 20.052C72.8976 19.9133 72.8109 19.714 72.8109 19.454V16.178C72.8109 15.4153 72.6376 14.852 72.2909 14.488C71.9616 14.124 71.5196 13.942 70.9649 13.942C70.2542 13.942 69.7342 14.176 69.4049 14.644C69.0929 15.0947 68.9369 15.5973 68.9369 16.152V19.454C68.9369 19.714 68.8416 19.9133 68.6509 20.052C68.4776 20.1907 68.2782 20.26 68.0529 20.26C67.8276 20.26 67.6196 20.1907 67.4289 20.052C67.2556 19.9133 67.1689 19.714 67.1689 19.454V13.344C67.1689 13.0493 67.2556 12.8327 67.4289 12.694C67.6196 12.538 67.8276 12.46 68.0529 12.46C68.2782 12.46 68.4776 12.538 68.6509 12.694C68.8416 12.8327 68.9369 13.0493 68.9369 13.344C69.2316 13.0493 69.6129 12.8067 70.0809 12.616C70.5489 12.4253 70.9909 12.33 71.4069 12.33C72.3776 12.33 73.1489 12.642 73.7209 13.266C74.2929 13.89 74.5789 14.8087 74.5789 16.022V19.454C74.5789 19.714 74.4836 19.9133 74.2929 20.052C74.1022 20.1907 73.9029 20.26 73.6949 20.26ZM79.892 20.26C79.1467 20.26 78.4794 20.0867 77.89 19.74C77.3007 19.3933 76.8414 18.9167 76.512 18.31C76.1827 17.686 76.018 16.9927 76.018 16.23C76.018 15.4847 76.1827 14.8173 76.512 14.228C76.8414 13.6387 77.3007 13.1793 77.89 12.85C78.4794 12.5033 79.1467 12.33 79.892 12.33C80.3774 12.33 80.8107 12.4167 81.192 12.59C81.5734 12.746 81.9027 12.954 82.18 13.214C82.2147 12.9713 82.3187 12.7893 82.492 12.668C82.6654 12.5293 82.856 12.46 83.064 12.46C83.2894 12.46 83.4887 12.538 83.662 12.694C83.8527 12.8327 83.948 13.0493 83.948 13.344V19.454C83.948 19.714 83.8527 19.9133 83.662 20.052C83.4887 20.1907 83.2894 20.26 83.064 20.26C82.8387 20.26 82.6307 20.1907 82.44 20.052C82.2667 19.9133 82.18 19.714 82.18 19.454V19.35C81.9027 19.6273 81.5734 19.844 81.192 20C80.8107 20.1733 80.3774 20.26 79.892 20.26ZM80.048 18.648C80.7067 18.648 81.2267 18.4313 81.608 17.998C81.9894 17.5473 82.18 16.958 82.18 16.23C82.18 15.5367 81.9894 14.982 81.608 14.566C81.2267 14.15 80.7067 13.942 80.048 13.942C79.372 13.942 78.826 14.15 78.41 14.566C77.994 14.982 77.786 15.5367 77.786 16.23C77.786 16.958 77.994 17.5473 78.41 17.998C78.826 18.4313 79.372 18.648 80.048 18.648ZM86.7912 20.26C86.5659 20.26 86.3579 20.1907 86.1672 20.052C85.9939 19.9133 85.9072 19.714 85.9072 19.454V13.344C85.9072 13.0493 85.9939 12.8327 86.1672 12.694C86.3579 12.538 86.5659 12.46 86.7912 12.46C86.9645 12.46 87.1292 12.5033 87.2852 12.59C87.4412 12.6593 87.5539 12.7893 87.6232 12.98C87.6579 13.084 87.6752 13.1793 87.6752 13.266C87.9352 12.9887 88.2732 12.7633 88.6892 12.59C89.1052 12.4167 89.5125 12.33 89.9112 12.33C91.0379 12.33 91.8699 12.7807 92.4072 13.682C92.6152 13.318 92.9532 13.006 93.4212 12.746C93.9065 12.4687 94.4959 12.33 95.1892 12.33C96.1252 12.33 96.8705 12.642 97.4252 13.266C97.9799 13.89 98.2572 14.8087 98.2572 16.022V19.454C98.2572 19.714 98.1619 19.9133 97.9712 20.052C97.7805 20.1907 97.5812 20.26 97.3732 20.26C97.1479 20.26 96.9399 20.1907 96.7492 20.052C96.5759 19.9133 96.4892 19.714 96.4892 19.454V16.178C96.4892 14.6873 95.9345 13.942 94.8252 13.942C94.2012 13.942 93.7505 14.1067 93.4732 14.436C93.1959 14.7653 93.0225 15.1553 92.9532 15.606V19.454C92.9532 19.714 92.8579 19.9133 92.6672 20.052C92.4765 20.1907 92.2772 20.26 92.0692 20.26C91.8439 20.26 91.6359 20.1907 91.4452 20.052C91.2719 19.9133 91.1852 19.714 91.1852 19.454V16.178C91.1852 15.4153 91.0379 14.852 90.7432 14.488C90.4485 14.124 90.0499 13.942 89.5472 13.942C88.8019 13.942 88.2992 14.176 88.0392 14.644C87.7965 15.0947 87.6752 15.5973 87.6752 16.152V19.454C87.6752 19.714 87.5799 19.9133 87.3892 20.052C87.2159 20.1907 87.0165 20.26 86.7912 20.26ZM103.816 20.26C102.516 20.26 101.502 19.8873 100.774 19.142C100.046 18.3967 99.6821 17.3913 99.6821 16.126C99.6821 15.0167 100.046 14.1067 100.774 13.396C101.519 12.6853 102.473 12.33 103.634 12.33C104.761 12.33 105.662 12.6593 106.338 13.318C107.014 13.9593 107.352 14.7567 107.352 15.71C107.352 16.0913 107.248 16.3773 107.04 16.568C106.849 16.7587 106.598 16.854 106.286 16.854H101.762C101.589 16.854 101.528 16.9493 101.58 17.14C101.719 17.6253 101.996 18.0067 102.412 18.284C102.845 18.544 103.331 18.674 103.868 18.674C104.267 18.674 104.648 18.622 105.012 18.518C105.393 18.414 105.723 18.258 106 18.05C106.087 17.9807 106.199 17.946 106.338 17.946C106.529 17.946 106.702 18.0327 106.858 18.206C107.014 18.362 107.092 18.5527 107.092 18.778C107.092 18.882 107.075 18.986 107.04 19.09C107.005 19.194 106.927 19.298 106.806 19.402C106.355 19.7313 105.87 19.9567 105.35 20.078C104.847 20.1993 104.336 20.26 103.816 20.26ZM105.324 15.502C105.428 15.502 105.48 15.45 105.48 15.346C105.48 14.9473 105.298 14.6007 104.934 14.306C104.587 14.0113 104.154 13.864 103.634 13.864C103.183 13.864 102.75 13.9853 102.334 14.228C101.935 14.4707 101.693 14.7913 101.606 15.19C101.606 15.19 101.606 15.1987 101.606 15.216C101.589 15.2853 101.58 15.346 101.58 15.398C101.597 15.45 101.675 15.476 101.814 15.476L105.324 15.502Z" fill="#6D6D71"/>
</svg>
