<svg width="175" height="30" viewBox="0 0 175 30" fill="none" xmlns="http://www.w3.org/2000/svg">
<rect width="175" height="30" fill="#26262A"/>
<path d="M161.678 19.986C161.47 19.986 161.297 19.908 161.158 19.752C161.037 19.596 160.976 19.4313 160.976 19.258C160.976 19.0153 161.08 18.8247 161.288 18.686L165.552 15.878C165.656 15.7913 165.708 15.722 165.708 15.67C165.708 15.6007 165.656 15.5313 165.552 15.462L161.288 12.654C161.063 12.498 160.95 12.2987 160.95 12.056C160.95 11.8653 161.011 11.692 161.132 11.536C161.271 11.38 161.444 11.302 161.652 11.302C161.808 11.302 161.973 11.3627 162.146 11.484L167.138 14.864C167.433 15.072 167.58 15.332 167.58 15.644C167.58 15.9907 167.433 16.2593 167.138 16.45L162.172 19.83C162.085 19.8993 161.999 19.9427 161.912 19.96C161.843 19.9773 161.765 19.986 161.678 19.986Z" fill="#6D6D71"/>
<path d="M12.322 19.986C12.53 19.986 12.7033 19.908 12.842 19.752C12.9633 19.596 13.024 19.4313 13.024 19.258C13.024 19.0153 12.92 18.8247 12.712 18.686L8.448 15.878C8.344 15.7913 8.292 15.722 8.292 15.67C8.292 15.6007 8.344 15.5313 8.448 15.462L12.712 12.654C12.9373 12.498 13.05 12.2987 13.05 12.056C13.05 11.8653 12.9893 11.692 12.868 11.536C12.7293 11.38 12.556 11.302 12.348 11.302C12.192 11.302 12.0273 11.3627 11.854 11.484L6.862 14.864C6.56733 15.072 6.42 15.332 6.42 15.644C6.42 15.9907 6.56733 16.2593 6.862 16.45L11.828 19.83C11.9147 19.8993 12.0013 19.9427 12.088 19.96C12.1573 19.9773 12.2353 19.986 12.322 19.986Z" fill="#6D6D71"/>
<path d="M57.8821 20.26C57.3968 20.26 56.9635 20.1733 56.5821 20C56.2008 19.844 55.8715 19.6273 55.5941 19.35V19.454C55.5941 19.714 55.4988 19.9133 55.3081 20.052C55.1348 20.1907 54.9355 20.26 54.7101 20.26C54.4848 20.26 54.2768 20.1907 54.0861 20.052C53.9128 19.9133 53.8261 19.714 53.8261 19.454V9.574C53.8261 9.27933 53.9128 9.06267 54.0861 8.924C54.2768 8.768 54.4848 8.69 54.7101 8.69C54.9355 8.69 55.1348 8.768 55.3081 8.924C55.4988 9.06267 55.5941 9.27933 55.5941 9.574V13.214C55.8715 12.9367 56.2008 12.72 56.5821 12.564C56.9635 12.408 57.3968 12.33 57.8821 12.33C58.6448 12.33 59.3121 12.5033 59.8841 12.85C60.4735 13.1793 60.9328 13.6387 61.2621 14.228C61.5915 14.8173 61.7561 15.4847 61.7561 16.23C61.7561 16.9927 61.5915 17.686 61.2621 18.31C60.9328 18.9167 60.4735 19.3933 59.8841 19.74C59.3121 20.0867 58.6448 20.26 57.8821 20.26ZM57.7261 18.648C58.4021 18.648 58.9481 18.4313 59.3641 17.998C59.7801 17.5473 59.9881 16.958 59.9881 16.23C59.9881 15.5367 59.7801 14.982 59.3641 14.566C58.9481 14.15 58.4021 13.942 57.7261 13.942C57.0675 13.942 56.5475 14.15 56.1661 14.566C55.7848 14.982 55.5941 15.5367 55.5941 16.23C55.5941 16.958 55.7848 17.5473 56.1661 17.998C56.5475 18.4313 57.0675 18.648 57.7261 18.648ZM65.0902 16.152V19.454C65.0902 19.714 64.9949 19.9133 64.8042 20.052C64.6309 20.1907 64.4316 20.26 64.2062 20.26C63.9809 20.26 63.7729 20.1907 63.5822 20.052C63.4089 19.9133 63.3222 19.714 63.3222 19.454V13.344C63.3222 13.0493 63.4089 12.8327 63.5822 12.694C63.7729 12.538 63.9809 12.46 64.2062 12.46C64.4316 12.46 64.6309 12.538 64.8042 12.694C64.9949 12.8327 65.0902 13.0493 65.0902 13.344V13.448C65.3329 13.1187 65.6449 12.85 66.0262 12.642C66.4249 12.434 66.8409 12.33 67.2742 12.33C67.4822 12.33 67.6902 12.356 67.8982 12.408C68.1062 12.46 68.2622 12.564 68.3662 12.72C68.4702 12.876 68.5222 13.0493 68.5222 13.24C68.5222 13.4653 68.4442 13.6733 68.2882 13.864C68.1496 14.0373 67.9416 14.124 67.6642 14.124C67.5429 14.124 67.4129 14.1067 67.2742 14.072C67.1529 14.0373 66.9969 14.02 66.8062 14.02C66.3036 14.02 65.8876 14.2107 65.5582 14.592C65.2462 14.9733 65.0902 15.4933 65.0902 16.152ZM72.7954 20.26C72.05 20.26 71.3827 20.0867 70.7934 19.74C70.204 19.3933 69.7447 18.9167 69.4154 18.31C69.086 17.686 68.9214 16.9927 68.9214 16.23C68.9214 15.4847 69.086 14.8173 69.4154 14.228C69.7447 13.6387 70.204 13.1793 70.7934 12.85C71.3827 12.5033 72.05 12.33 72.7954 12.33C73.2807 12.33 73.714 12.4167 74.0954 12.59C74.4767 12.746 74.806 12.954 75.0834 13.214C75.118 12.9713 75.222 12.7893 75.3954 12.668C75.5687 12.5293 75.7594 12.46 75.9674 12.46C76.1927 12.46 76.392 12.538 76.5654 12.694C76.756 12.8327 76.8514 13.0493 76.8514 13.344V19.454C76.8514 19.714 76.756 19.9133 76.5654 20.052C76.392 20.1907 76.1927 20.26 75.9674 20.26C75.742 20.26 75.534 20.1907 75.3434 20.052C75.17 19.9133 75.0834 19.714 75.0834 19.454V19.35C74.806 19.6273 74.4767 19.844 74.0954 20C73.714 20.1733 73.2807 20.26 72.7954 20.26ZM72.9514 18.648C73.61 18.648 74.13 18.4313 74.5114 17.998C74.8927 17.5473 75.0834 16.958 75.0834 16.23C75.0834 15.5367 74.8927 14.982 74.5114 14.566C74.13 14.15 73.61 13.942 72.9514 13.942C72.2754 13.942 71.7294 14.15 71.3134 14.566C70.8974 14.982 70.6894 15.5367 70.6894 16.23C70.6894 16.958 70.8974 17.5473 71.3134 17.998C71.7294 18.4313 72.2754 18.648 72.9514 18.648ZM82.2685 20.26C81.1072 20.26 80.1538 19.8873 79.4085 19.142C78.6632 18.3967 78.2905 17.426 78.2905 16.23C78.2905 15.4673 78.4638 14.7913 78.8105 14.202C79.1572 13.6127 79.6252 13.1533 80.2145 12.824C80.8212 12.4947 81.5058 12.33 82.2685 12.33C83.3085 12.33 84.1925 12.5727 84.9205 13.058C85.1632 13.214 85.2845 13.4307 85.2845 13.708C85.2845 13.9853 85.1978 14.202 85.0245 14.358C84.8512 14.514 84.6518 14.592 84.4265 14.592C84.2705 14.592 84.1318 14.5573 84.0105 14.488C83.3692 14.0547 82.7712 13.864 82.2165 13.916C81.5405 13.9853 81.0118 14.2193 80.6305 14.618C80.2492 14.9993 80.0585 15.5453 80.0585 16.256C80.0585 17.0013 80.2578 17.5907 80.6565 18.024C81.0725 18.44 81.6532 18.648 82.3985 18.648C83.0572 18.648 83.7158 18.3967 84.3745 17.894C84.5132 17.7727 84.6952 17.712 84.9205 17.712C85.1805 17.712 85.3712 17.816 85.4925 18.024C85.6312 18.2147 85.7005 18.3967 85.7005 18.57C85.7005 18.8127 85.5878 19.038 85.3625 19.246C84.9292 19.6273 84.4525 19.8873 83.9325 20.026C83.4125 20.182 82.8578 20.26 82.2685 20.26ZM90.7526 20.26C89.4526 20.26 88.4386 19.8873 87.7106 19.142C86.9826 18.3967 86.6186 17.3913 86.6186 16.126C86.6186 15.0167 86.9826 14.1067 87.7106 13.396C88.456 12.6853 89.4093 12.33 90.5706 12.33C91.6973 12.33 92.5986 12.6593 93.2746 13.318C93.9506 13.9593 94.2886 14.7567 94.2886 15.71C94.2886 16.0913 94.1846 16.3773 93.9766 16.568C93.786 16.7587 93.5346 16.854 93.2226 16.854H88.6986C88.5253 16.854 88.4646 16.9493 88.5166 17.14C88.6553 17.6253 88.9326 18.0067 89.3486 18.284C89.782 18.544 90.2673 18.674 90.8046 18.674C91.2033 18.674 91.5846 18.622 91.9486 18.518C92.33 18.414 92.6593 18.258 92.9366 18.05C93.0233 17.9807 93.136 17.946 93.2746 17.946C93.4653 17.946 93.6386 18.0327 93.7946 18.206C93.9506 18.362 94.0286 18.5527 94.0286 18.778C94.0286 18.882 94.0113 18.986 93.9766 19.09C93.942 19.194 93.864 19.298 93.7426 19.402C93.292 19.7313 92.8066 19.9567 92.2866 20.078C91.784 20.1993 91.2726 20.26 90.7526 20.26ZM92.2606 15.502C92.3646 15.502 92.4166 15.45 92.4166 15.346C92.4166 14.9473 92.2346 14.6007 91.8706 14.306C91.524 14.0113 91.0906 13.864 90.5706 13.864C90.12 13.864 89.6866 13.9853 89.2706 14.228C88.872 14.4707 88.6293 14.7913 88.5426 15.19C88.5426 15.19 88.5426 15.1987 88.5426 15.216C88.5253 15.2853 88.5166 15.346 88.5166 15.398C88.534 15.45 88.612 15.476 88.7506 15.476L92.2606 15.502ZM96.7316 20.26C96.5063 20.26 96.2983 20.1907 96.1076 20.052C95.9343 19.9133 95.8476 19.714 95.8476 19.454V9.574C95.8476 9.27933 95.9343 9.06267 96.1076 8.924C96.2983 8.768 96.5063 8.69 96.7316 8.69C96.957 8.69 97.1563 8.768 97.3296 8.924C97.5203 9.06267 97.6156 9.27933 97.6156 9.574V19.454C97.6156 19.714 97.5203 19.9133 97.3296 20.052C97.1563 20.1907 96.957 20.26 96.7316 20.26ZM103.372 20.26C102.072 20.26 101.058 19.8873 100.33 19.142C99.6018 18.3967 99.2378 17.3913 99.2378 16.126C99.2378 15.0167 99.6018 14.1067 100.33 13.396C101.075 12.6853 102.028 12.33 103.19 12.33C104.316 12.33 105.218 12.6593 105.894 13.318C106.57 13.9593 106.908 14.7567 106.908 15.71C106.908 16.0913 106.804 16.3773 106.596 16.568C106.405 16.7587 106.154 16.854 105.842 16.854H101.318C101.144 16.854 101.084 16.9493 101.136 17.14C101.274 17.6253 101.552 18.0067 101.968 18.284C102.401 18.544 102.886 18.674 103.424 18.674C103.822 18.674 104.204 18.622 104.568 18.518C104.949 18.414 105.278 18.258 105.556 18.05C105.642 17.9807 105.755 17.946 105.894 17.946C106.084 17.946 106.258 18.0327 106.414 18.206C106.57 18.362 106.648 18.5527 106.648 18.778C106.648 18.882 106.63 18.986 106.596 19.09C106.561 19.194 106.483 19.298 106.362 19.402C105.911 19.7313 105.426 19.9567 104.906 20.078C104.403 20.1993 103.892 20.26 103.372 20.26ZM104.88 15.502C104.984 15.502 105.036 15.45 105.036 15.346C105.036 14.9473 104.854 14.6007 104.49 14.306C104.143 14.0113 103.71 13.864 103.19 13.864C102.739 13.864 102.306 13.9853 101.89 14.228C101.491 14.4707 101.248 14.7913 101.162 15.19C101.162 15.19 101.162 15.1987 101.162 15.216C101.144 15.2853 101.136 15.346 101.136 15.398C101.153 15.45 101.231 15.476 101.37 15.476L104.88 15.502ZM111.405 20.26C110.729 20.26 110.174 20.052 109.741 19.636C109.307 19.22 109.091 18.596 109.091 17.764V14.462C109.091 14.2887 109.004 14.202 108.831 14.202H108.363C108.137 14.202 107.947 14.1327 107.791 13.994C107.635 13.838 107.557 13.6473 107.557 13.422C107.557 13.1793 107.635 12.98 107.791 12.824C107.947 12.668 108.137 12.59 108.363 12.59H108.831C109.004 12.59 109.091 12.5033 109.091 12.33V10.146C109.091 9.90333 109.169 9.71267 109.325 9.574C109.498 9.418 109.706 9.34 109.949 9.34C110.209 9.34 110.417 9.418 110.573 9.574C110.746 9.71267 110.833 9.90333 110.833 10.146V12.33C110.833 12.5033 110.919 12.59 111.093 12.59H112.497C112.705 12.59 112.887 12.668 113.043 12.824C113.199 12.98 113.277 13.1793 113.277 13.422C113.277 13.6473 113.199 13.838 113.043 13.994C112.904 14.1327 112.713 14.202 112.471 14.202H111.093C110.919 14.202 110.833 14.2887 110.833 14.462V17.53C110.833 18.258 111.127 18.622 111.717 18.622C111.89 18.622 112.072 18.596 112.263 18.544C112.453 18.492 112.583 18.466 112.653 18.466C112.895 18.466 113.077 18.544 113.199 18.7C113.337 18.856 113.407 19.038 113.407 19.246C113.407 19.402 113.363 19.558 113.277 19.714C113.19 19.8527 113.051 19.9567 112.861 20.026C112.67 20.0953 112.427 20.1473 112.133 20.182C111.855 20.234 111.613 20.26 111.405 20.26ZM117.417 20.26C116.914 20.26 116.403 20.1907 115.883 20.052C115.363 19.9307 114.904 19.7313 114.505 19.454C114.297 19.2633 114.193 19.0553 114.193 18.83C114.193 18.6047 114.28 18.4053 114.453 18.232C114.644 18.0587 114.852 17.972 115.077 17.972C115.198 17.972 115.32 18.0067 115.441 18.076C115.753 18.2667 116.108 18.4227 116.507 18.544C116.923 18.648 117.313 18.7 117.677 18.7C118.024 18.7 118.318 18.6393 118.561 18.518C118.821 18.3967 118.951 18.1973 118.951 17.92C118.951 17.6427 118.83 17.4347 118.587 17.296C118.344 17.1573 117.928 17.0533 117.339 16.984C117.096 16.9493 116.802 16.906 116.455 16.854C116.126 16.802 115.796 16.7067 115.467 16.568C115.138 16.4293 114.86 16.2213 114.635 15.944C114.41 15.6667 114.297 15.294 114.297 14.826C114.297 14.0633 114.574 13.4567 115.129 13.006C115.701 12.5553 116.464 12.33 117.417 12.33C117.972 12.33 118.492 12.3993 118.977 12.538C119.48 12.6767 119.852 12.85 120.095 13.058C120.286 13.214 120.381 13.396 120.381 13.604C120.381 13.8293 120.303 14.0287 120.147 14.202C119.991 14.3753 119.8 14.462 119.575 14.462C119.454 14.462 119.341 14.436 119.237 14.384C118.96 14.228 118.648 14.1153 118.301 14.046C117.972 13.9593 117.651 13.916 117.339 13.916C116.975 13.916 116.663 13.9767 116.403 14.098C116.16 14.202 116.039 14.3753 116.039 14.618C116.039 14.7913 116.108 14.9473 116.247 15.086C116.403 15.2073 116.793 15.3113 117.417 15.398C117.712 15.4327 118.041 15.4847 118.405 15.554C118.786 15.6233 119.15 15.736 119.497 15.892C119.844 16.0307 120.13 16.256 120.355 16.568C120.58 16.88 120.693 17.3047 120.693 17.842C120.693 18.3967 120.537 18.856 120.225 19.22C119.913 19.5667 119.506 19.8267 119.003 20C118.518 20.1733 117.989 20.26 117.417 20.26Z" fill="#6D6D71"/>
</svg>
