<svg width="175" height="30" viewBox="0 0 175 30" fill="none" xmlns="http://www.w3.org/2000/svg">
<rect width="175" height="30" fill="#26262A"/>
<path d="M161.678 19.986C161.47 19.986 161.297 19.908 161.158 19.752C161.037 19.596 160.976 19.4313 160.976 19.258C160.976 19.0153 161.08 18.8247 161.288 18.686L165.552 15.878C165.656 15.7913 165.708 15.722 165.708 15.67C165.708 15.6007 165.656 15.5313 165.552 15.462L161.288 12.654C161.063 12.498 160.95 12.2987 160.95 12.056C160.95 11.8653 161.011 11.692 161.132 11.536C161.271 11.38 161.444 11.302 161.652 11.302C161.808 11.302 161.973 11.3627 162.146 11.484L167.138 14.864C167.433 15.072 167.58 15.332 167.58 15.644C167.58 15.9907 167.433 16.2593 167.138 16.45L162.172 19.83C162.085 19.8993 161.999 19.9427 161.912 19.96C161.843 19.9773 161.765 19.986 161.678 19.986Z" fill="#6D6D71"/>
<path d="M12.322 19.986C12.53 19.986 12.7033 19.908 12.842 19.752C12.9633 19.596 13.024 19.4313 13.024 19.258C13.024 19.0153 12.92 18.8247 12.712 18.686L8.448 15.878C8.344 15.7913 8.292 15.722 8.292 15.67C8.292 15.6007 8.344 15.5313 8.448 15.462L12.712 12.654C12.9373 12.498 13.05 12.2987 13.05 12.056C13.05 11.8653 12.9893 11.692 12.868 11.536C12.7293 11.38 12.556 11.302 12.348 11.302C12.192 11.302 12.0273 11.3627 11.854 11.484L6.862 14.864C6.56733 15.072 6.42 15.332 6.42 15.644C6.42 15.9907 6.56733 16.2593 6.862 16.45L11.828 19.83C11.9147 19.8993 12.0013 19.9427 12.088 19.96C12.1573 19.9773 12.2353 19.986 12.322 19.986Z" fill="#6D6D71"/>
<path d="M71.6564 20.26C70.8938 20.26 70.2004 20.0867 69.5764 19.74C68.9698 19.3933 68.4931 18.9167 68.1464 18.31C67.7998 17.686 67.6264 16.9927 67.6264 16.23C67.6264 15.4847 67.7998 14.8173 68.1464 14.228C68.4931 13.6387 68.9698 13.1793 69.5764 12.85C70.2004 12.5033 70.8938 12.33 71.6564 12.33C72.4191 12.33 73.1038 12.5033 73.7104 12.85C74.3171 13.1793 74.7938 13.6387 75.1404 14.228C75.5044 14.8173 75.6864 15.4847 75.6864 16.23C75.6864 16.9927 75.5044 17.686 75.1404 18.31C74.7938 18.9167 74.3171 19.3933 73.7104 19.74C73.1038 20.0867 72.4191 20.26 71.6564 20.26ZM71.6564 18.648C72.3324 18.648 72.8784 18.4313 73.2944 17.998C73.7104 17.5473 73.9184 16.958 73.9184 16.23C73.9184 15.5367 73.7104 14.982 73.2944 14.566C72.8784 14.15 72.3324 13.942 71.6564 13.942C70.9631 13.942 70.4084 14.15 69.9924 14.566C69.5938 14.982 69.3944 15.5367 69.3944 16.23C69.3944 16.958 69.5938 17.5473 69.9924 17.998C70.4084 18.4313 70.9631 18.648 71.6564 18.648ZM80.1743 20.26C79.4983 20.26 78.9436 20.052 78.5103 19.636C78.077 19.22 77.8603 18.596 77.8603 17.764V14.462C77.8603 14.2887 77.7736 14.202 77.6003 14.202H77.1323C76.907 14.202 76.7163 14.1327 76.5603 13.994C76.4043 13.838 76.3263 13.6473 76.3263 13.422C76.3263 13.1793 76.4043 12.98 76.5603 12.824C76.7163 12.668 76.907 12.59 77.1323 12.59H77.6003C77.7736 12.59 77.8603 12.5033 77.8603 12.33V10.146C77.8603 9.90333 77.9383 9.71267 78.0943 9.574C78.2676 9.418 78.4756 9.34 78.7183 9.34C78.9783 9.34 79.1863 9.418 79.3423 9.574C79.5156 9.71267 79.6023 9.90333 79.6023 10.146V12.33C79.6023 12.5033 79.689 12.59 79.8623 12.59H81.2663C81.4743 12.59 81.6563 12.668 81.8123 12.824C81.9683 12.98 82.0463 13.1793 82.0463 13.422C82.0463 13.6473 81.9683 13.838 81.8123 13.994C81.6736 14.1327 81.483 14.202 81.2403 14.202H79.8623C79.689 14.202 79.6023 14.2887 79.6023 14.462V17.53C79.6023 18.258 79.897 18.622 80.4863 18.622C80.6596 18.622 80.8416 18.596 81.0323 18.544C81.223 18.492 81.353 18.466 81.4223 18.466C81.665 18.466 81.847 18.544 81.9683 18.7C82.107 18.856 82.1763 19.038 82.1763 19.246C82.1763 19.402 82.133 19.558 82.0463 19.714C81.9596 19.8527 81.821 19.9567 81.6303 20.026C81.4396 20.0953 81.197 20.1473 80.9023 20.182C80.625 20.234 80.3823 20.26 80.1743 20.26ZM84.3664 20.26C84.141 20.26 83.933 20.1907 83.7424 20.052C83.569 19.9133 83.4824 19.714 83.4824 19.454V9.574C83.4824 9.27933 83.569 9.06267 83.7424 8.924C83.933 8.768 84.141 8.69 84.3664 8.69C84.5917 8.69 84.791 8.768 84.9644 8.924C85.155 9.06267 85.2504 9.27933 85.2504 9.574V13.292C85.5277 12.9973 85.8917 12.7633 86.3424 12.59C86.8104 12.4167 87.2437 12.33 87.6424 12.33C88.5437 12.33 89.3064 12.642 89.9304 13.266C90.5717 13.89 90.8924 14.8087 90.8924 16.022V19.454C90.8924 19.714 90.797 19.9133 90.6064 20.052C90.4157 20.1907 90.2164 20.26 90.0084 20.26C89.7831 20.26 89.5751 20.1907 89.3844 20.052C89.211 19.9133 89.1244 19.714 89.1244 19.454V16.178C89.1244 15.4153 88.951 14.852 88.6044 14.488C88.275 14.124 87.833 13.942 87.2784 13.942C86.533 13.942 86.0044 14.176 85.6924 14.644C85.3977 15.0947 85.2504 15.5973 85.2504 16.152V19.454C85.2504 19.714 85.155 19.9133 84.9644 20.052C84.791 20.1907 84.5917 20.26 84.3664 20.26ZM96.4655 20.26C95.1655 20.26 94.1515 19.8873 93.4235 19.142C92.6955 18.3967 92.3315 17.3913 92.3315 16.126C92.3315 15.0167 92.6955 14.1067 93.4235 13.396C94.1689 12.6853 95.1222 12.33 96.2835 12.33C97.4102 12.33 98.3115 12.6593 98.9875 13.318C99.6635 13.9593 100.002 14.7567 100.002 15.71C100.002 16.0913 99.8975 16.3773 99.6895 16.568C99.4989 16.7587 99.2475 16.854 98.9355 16.854H94.4115C94.2382 16.854 94.1775 16.9493 94.2295 17.14C94.3682 17.6253 94.6455 18.0067 95.0615 18.284C95.4949 18.544 95.9802 18.674 96.5175 18.674C96.9162 18.674 97.2975 18.622 97.6615 18.518C98.0429 18.414 98.3722 18.258 98.6495 18.05C98.7362 17.9807 98.8489 17.946 98.9875 17.946C99.1782 17.946 99.3515 18.0327 99.5075 18.206C99.6635 18.362 99.7415 18.5527 99.7415 18.778C99.7415 18.882 99.7242 18.986 99.6895 19.09C99.6549 19.194 99.5769 19.298 99.4555 19.402C99.0049 19.7313 98.5195 19.9567 97.9995 20.078C97.4969 20.1993 96.9855 20.26 96.4655 20.26ZM97.9735 15.502C98.0775 15.502 98.1295 15.45 98.1295 15.346C98.1295 14.9473 97.9475 14.6007 97.5835 14.306C97.2369 14.0113 96.8035 13.864 96.2835 13.864C95.8329 13.864 95.3995 13.9853 94.9835 14.228C94.5849 14.4707 94.3422 14.7913 94.2555 15.19C94.2555 15.19 94.2555 15.1987 94.2555 15.216C94.2382 15.2853 94.2295 15.346 94.2295 15.398C94.2469 15.45 94.3249 15.476 94.4635 15.476L97.9735 15.502ZM103.329 16.152V19.454C103.329 19.714 103.233 19.9133 103.043 20.052C102.869 20.1907 102.67 20.26 102.445 20.26C102.219 20.26 102.011 20.1907 101.821 20.052C101.647 19.9133 101.561 19.714 101.561 19.454V13.344C101.561 13.0493 101.647 12.8327 101.821 12.694C102.011 12.538 102.219 12.46 102.445 12.46C102.67 12.46 102.869 12.538 103.043 12.694C103.233 12.8327 103.329 13.0493 103.329 13.344V13.448C103.571 13.1187 103.883 12.85 104.265 12.642C104.663 12.434 105.079 12.33 105.513 12.33C105.721 12.33 105.929 12.356 106.137 12.408C106.345 12.46 106.501 12.564 106.605 12.72C106.709 12.876 106.761 13.0493 106.761 13.24C106.761 13.4653 106.683 13.6733 106.527 13.864C106.388 14.0373 106.18 14.124 105.903 14.124C105.781 14.124 105.651 14.1067 105.513 14.072C105.391 14.0373 105.235 14.02 105.045 14.02C104.542 14.02 104.126 14.2107 103.797 14.592C103.485 14.9733 103.329 15.4933 103.329 16.152Z" fill="#6D6D71"/>
</svg>
