<svg width="175" height="30" viewBox="0 0 175 30" fill="none" xmlns="http://www.w3.org/2000/svg">
<rect width="175" height="30" fill="#26262A"/>
<path d="M161.678 19.986C161.47 19.986 161.297 19.908 161.158 19.752C161.037 19.596 160.976 19.4313 160.976 19.258C160.976 19.0153 161.08 18.8247 161.288 18.686L165.552 15.878C165.656 15.7913 165.708 15.722 165.708 15.67C165.708 15.6007 165.656 15.5313 165.552 15.462L161.288 12.654C161.063 12.498 160.95 12.2987 160.95 12.056C160.95 11.8653 161.011 11.692 161.132 11.536C161.271 11.38 161.444 11.302 161.652 11.302C161.808 11.302 161.973 11.3627 162.146 11.484L167.138 14.864C167.433 15.072 167.58 15.332 167.58 15.644C167.58 15.9907 167.433 16.2593 167.138 16.45L162.172 19.83C162.085 19.8993 161.999 19.9427 161.912 19.96C161.843 19.9773 161.765 19.986 161.678 19.986Z" fill="#6D6D71"/>
<path d="M12.322 19.986C12.53 19.986 12.7033 19.908 12.842 19.752C12.9633 19.596 13.024 19.4313 13.024 19.258C13.024 19.0153 12.92 18.8247 12.712 18.686L8.448 15.878C8.344 15.7913 8.292 15.722 8.292 15.67C8.292 15.6007 8.344 15.5313 8.448 15.462L12.712 12.654C12.9373 12.498 13.05 12.2987 13.05 12.056C13.05 11.8653 12.9893 11.692 12.868 11.536C12.7293 11.38 12.556 11.302 12.348 11.302C12.192 11.302 12.0273 11.3627 11.854 11.484L6.862 14.864C6.56733 15.072 6.42 15.332 6.42 15.644C6.42 15.9907 6.56733 16.2593 6.862 16.45L11.828 19.83C11.9147 19.8993 12.0013 19.9427 12.088 19.96C12.1573 19.9773 12.2353 19.986 12.322 19.986Z" fill="#6D6D71"/>
<path d="M71.3251 20.26C70.1638 20.26 69.2105 19.8873 68.4651 19.142C67.7198 18.3967 67.3471 17.426 67.3471 16.23C67.3471 15.4673 67.5205 14.7913 67.8671 14.202C68.2138 13.6127 68.6818 13.1533 69.2711 12.824C69.8778 12.4947 70.5625 12.33 71.3251 12.33C72.3651 12.33 73.2491 12.5727 73.9771 13.058C74.2198 13.214 74.3411 13.4307 74.3411 13.708C74.3411 13.9853 74.2545 14.202 74.0811 14.358C73.9078 14.514 73.7085 14.592 73.4831 14.592C73.3271 14.592 73.1885 14.5573 73.0671 14.488C72.4258 14.0547 71.8278 13.864 71.2731 13.916C70.5971 13.9853 70.0685 14.2193 69.6871 14.618C69.3058 14.9993 69.1151 15.5453 69.1151 16.256C69.1151 17.0013 69.3145 17.5907 69.7131 18.024C70.1291 18.44 70.7098 18.648 71.4551 18.648C72.1138 18.648 72.7725 18.3967 73.4311 17.894C73.5698 17.7727 73.7518 17.712 73.9771 17.712C74.2371 17.712 74.4278 17.816 74.5491 18.024C74.6878 18.2147 74.7571 18.3967 74.7571 18.57C74.7571 18.8127 74.6445 19.038 74.4191 19.246C73.9858 19.6273 73.5091 19.8873 72.9891 20.026C72.4691 20.182 71.9145 20.26 71.3251 20.26ZM77.0793 20.26C76.8539 20.26 76.6459 20.1907 76.4553 20.052C76.2819 19.9133 76.1953 19.714 76.1953 19.454V9.574C76.1953 9.27933 76.2819 9.06267 76.4553 8.924C76.6459 8.768 76.8539 8.69 77.0793 8.69C77.3046 8.69 77.5039 8.768 77.6773 8.924C77.8679 9.06267 77.9633 9.27933 77.9633 9.574V13.292C78.2406 12.9973 78.6046 12.7633 79.0553 12.59C79.5233 12.4167 79.9566 12.33 80.3553 12.33C81.2566 12.33 82.0193 12.642 82.6433 13.266C83.2846 13.89 83.6053 14.8087 83.6053 16.022V19.454C83.6053 19.714 83.5099 19.9133 83.3193 20.052C83.1286 20.1907 82.9293 20.26 82.7213 20.26C82.4959 20.26 82.2879 20.1907 82.0973 20.052C81.9239 19.9133 81.8373 19.714 81.8373 19.454V16.178C81.8373 15.4153 81.6639 14.852 81.3173 14.488C80.9879 14.124 80.5459 13.942 79.9913 13.942C79.2459 13.942 78.7173 14.176 78.4053 14.644C78.1106 15.0947 77.9633 15.5973 77.9633 16.152V19.454C77.9633 19.714 77.8679 19.9133 77.6773 20.052C77.5039 20.1907 77.3046 20.26 77.0793 20.26ZM88.9184 20.26C88.1731 20.26 87.5057 20.0867 86.9164 19.74C86.3271 19.3933 85.8677 18.9167 85.5384 18.31C85.2091 17.686 85.0444 16.9927 85.0444 16.23C85.0444 15.4847 85.2091 14.8173 85.5384 14.228C85.8677 13.6387 86.3271 13.1793 86.9164 12.85C87.5057 12.5033 88.1731 12.33 88.9184 12.33C89.4037 12.33 89.8371 12.4167 90.2184 12.59C90.5997 12.746 90.9291 12.954 91.2064 13.214C91.2411 12.9713 91.3451 12.7893 91.5184 12.668C91.6917 12.5293 91.8824 12.46 92.0904 12.46C92.3157 12.46 92.5151 12.538 92.6884 12.694C92.8791 12.8327 92.9744 13.0493 92.9744 13.344V19.454C92.9744 19.714 92.8791 19.9133 92.6884 20.052C92.5151 20.1907 92.3157 20.26 92.0904 20.26C91.8651 20.26 91.6571 20.1907 91.4664 20.052C91.2931 19.9133 91.2064 19.714 91.2064 19.454V19.35C90.9291 19.6273 90.5997 19.844 90.2184 20C89.8371 20.1733 89.4037 20.26 88.9184 20.26ZM89.0744 18.648C89.7331 18.648 90.2531 18.4313 90.6344 17.998C91.0157 17.5473 91.2064 16.958 91.2064 16.23C91.2064 15.5367 91.0157 14.982 90.6344 14.566C90.2531 14.15 89.7331 13.942 89.0744 13.942C88.3984 13.942 87.8524 14.15 87.4364 14.566C87.0204 14.982 86.8124 15.5367 86.8124 16.23C86.8124 16.958 87.0204 17.5473 87.4364 17.998C87.8524 18.4313 88.3984 18.648 89.0744 18.648ZM95.8436 20.26C95.6182 20.26 95.4102 20.1907 95.2196 20.052C95.0462 19.9133 94.9596 19.714 94.9596 19.454V13.214C94.9596 12.9193 95.0462 12.7027 95.2196 12.564C95.4102 12.408 95.6182 12.33 95.8436 12.33C96.0689 12.33 96.2682 12.408 96.4416 12.564C96.6322 12.7027 96.7276 12.9193 96.7276 13.214V19.454C96.7276 19.714 96.6322 19.9133 96.4416 20.052C96.2682 20.1907 96.0689 20.26 95.8436 20.26ZM95.8696 10.9C95.5402 10.9 95.2542 10.796 95.0116 10.588C94.7862 10.3627 94.6736 10.094 94.6736 9.782C94.6736 9.48733 94.7862 9.236 95.0116 9.028C95.2542 8.80267 95.5402 8.69 95.8696 8.69C96.1816 8.69 96.4502 8.80267 96.6756 9.028C96.9009 9.236 97.0136 9.48733 97.0136 9.782C97.0136 10.094 96.9009 10.3627 96.6756 10.588C96.4502 10.796 96.1816 10.9 95.8696 10.9ZM105.37 20.26C105.144 20.26 104.936 20.1907 104.746 20.052C104.572 19.9133 104.486 19.714 104.486 19.454V16.178C104.486 15.4153 104.312 14.852 103.966 14.488C103.636 14.124 103.194 13.942 102.64 13.942C101.929 13.942 101.409 14.176 101.08 14.644C100.768 15.0947 100.612 15.5973 100.612 16.152V19.454C100.612 19.714 100.516 19.9133 100.326 20.052C100.152 20.1907 99.953 20.26 99.7277 20.26C99.5024 20.26 99.2944 20.1907 99.1037 20.052C98.9304 19.9133 98.8437 19.714 98.8437 19.454V13.344C98.8437 13.0493 98.9304 12.8327 99.1037 12.694C99.2944 12.538 99.5024 12.46 99.7277 12.46C99.953 12.46 100.152 12.538 100.326 12.694C100.516 12.8327 100.612 13.0493 100.612 13.344C100.906 13.0493 101.288 12.8067 101.756 12.616C102.224 12.4253 102.666 12.33 103.082 12.33C104.052 12.33 104.824 12.642 105.396 13.266C105.968 13.89 106.254 14.8087 106.254 16.022V19.454C106.254 19.714 106.158 19.9133 105.968 20.052C105.777 20.1907 105.578 20.26 105.37 20.26Z" fill="#6D6D71"/>
</svg>
